<?xml version="1.0" encoding="iso-8859-1"?>
<!-- Uploaded to: SVG Repo, www.svgrepo.com, Generator: SVG Repo Mixer Tools -->
<svg version="1.1" id="Layer_1" xmlns="http://www.w3.org/2000/svg" xmlns:xlink="http://www.w3.org/1999/xlink" 
	 viewBox="0 0 500.506 500.506" xml:space="preserve">
<path style="fill:#F2F2F2;" d="M396.539,151.51v324.963c0,13.584-11.494,24.033-24.033,24.033H129.045
	c-13.584,0-24.033-11.494-24.033-24.033V151.51l56.424-87.771h179.722L396.539,151.51z"/>
<rect x="103.967" y="185.992" style="fill:#4CDBC4;" width="291.527" height="259.135"/>
<path style="fill:#E2E2E2;" d="M335.935,45.976H164.571c-1.045,0-3.135,0-4.18,0v17.763h179.722V44.931
	C339.069,44.931,338.025,45.976,335.935,45.976z"/>
<path style="fill:#3DC9AE;" d="M396.539,275.853v144.196c-97.175,24.033-194.351-88.816-291.527-64.784V211.069
	C201.143,187.037,299.363,299.886,396.539,275.853z"/>
<path style="fill:#FF7058;" d="M341.159,45.976H159.347c-12.539,0-22.988-10.449-22.988-22.988l0,0
	C136.359,10.449,146.808,0,159.347,0h180.767c12.539,0,22.988,10.449,22.988,22.988l0,0
	C364.147,35.527,353.698,45.976,341.159,45.976z"/>
<g>
	<path style="fill:#FFFFFF;" d="M152.033,344.816v-59.559h17.763l10.449,40.751l10.449-40.751h17.763v59.559h-11.494v-47.02
		l-11.494,47.02h-11.494l-11.494-47.02v47.02H152.033z"/>
	<path style="fill:#FFFFFF;" d="M220.996,344.816v-59.559h11.494v59.559H220.996z"/>
	<path style="fill:#FFFFFF;" d="M245.029,344.816v-58.514h11.494v49.11h30.302v10.449h-41.796V344.816z"/>
	<path style="fill:#FFFFFF;" d="M295.184,344.816v-59.559h11.494v26.122l24.033-26.122h15.673l-21.943,22.988l24.033,36.571H332.8
		l-16.718-28.212l-9.404,9.404v17.763h-11.494L295.184,344.816L295.184,344.816z"/>
</g>
</svg>