<?xml version="1.0" encoding="iso-8859-1"?>
<!-- Uploaded to: SVG Repo, www.svgrepo.com, Generator: SVG Repo Mixer Tools -->
<svg height="800px" width="800px" version="1.1" id="Layer_1" xmlns="http://www.w3.org/2000/svg" xmlns:xlink="http://www.w3.org/1999/xlink" 
	 viewBox="0 0 512.432 512.432" xml:space="preserve">
<g transform="translate(1 1)">
	<path style="fill:#FFDD09;" d="M431.002,8.383L386.629,25.45c-20.48,5.12-40.96,7.68-61.44,7.68H185.242
		c-20.48,0-40.96-2.56-60.587-7.68L80.282,8.383C66.629,4.97,55.536,17.77,59.802,30.57l24.747,62.293
		c-22.187,100.693-22.187,209.067,0,324.267l-20.48,61.44c-5.12,11.947,5.12,25.6,17.92,23.04l50.347-8.533
		c7.68-1.707,15.36-2.56,22.187-3.413c15.36-2.56,29.867-4.267,45.227-4.267h109.227c15.36,0,29.867,1.707,45.227,4.267
		c6.827,1.707,14.507,2.56,22.187,3.413l50.347,8.533c12.8,2.56,23.04-11.093,17.92-23.04l-18.773-61.44
		c23.04-118.613,23.04-226.987,0-324.267l24.747-62.293C454.896,17.77,443.802,4.97,431.002,8.383"/>
	<g>
		<path style="fill:#1CD759;" d="M342.256,195.263c-52.053,0-93.867,41.813-93.867,93.867
			C300.442,289.13,342.256,247.317,342.256,195.263"/>
		<path style="fill:#1CD759;" d="M309.829,161.983c-17.92-48.64-72.533-73.387-121.173-54.613
			C206.576,156.01,261.189,180.757,309.829,161.983"/>
		<path style="fill:#1CD759;" d="M203.162,179.903c-46.08,23.893-64,80.213-40.107,126.293
			C209.136,282.303,227.056,225.983,203.162,179.903"/>
	</g>
	<path style="fill:#FD9808;" d="M431.002,8.383l-8.533,3.413c5.12,4.267,6.827,11.947,4.267,19.627l-21.333,62.293
		c19.627,97.28,20.48,205.653,0,324.267l17.92,61.44c2.56,8.533-0.853,17.067-6.827,21.333l11.093,1.707
		c12.8,2.56,23.04-11.093,17.92-23.04l-19.627-61.44c23.04-118.613,23.04-226.987,0-324.267l24.747-62.293
		C454.896,18.623,443.802,4.97,431.002,8.383"/>
	<path style="fill:#FFFFFF;" d="M87.109,479.423l17.92-61.44c-19.627-115.2-19.627-223.573,0-324.267L83.696,31.423
		c-2.56-7.68,0-15.36,4.267-19.627l-8.533-3.413c-12.8-3.413-23.893,10.24-19.627,23.04l24.747,62.293
		c-22.187,100.693-22.187,209.067,0,324.267l-20.48,61.44c-5.12,11.947,5.12,25.6,17.92,23.04l11.093-1.707
		C87.962,496.49,84.549,487.957,87.109,479.423"/>
	<path d="M79.429,510.143c-7.68,0-14.507-3.413-19.627-9.387c-5.973-6.827-7.68-17.067-4.267-25.6l20.48-58.88
		c-22.187-113.493-22.187-221.867,0-323.413L52.976,33.13c-4.267-8.533-2.56-17.92,4.267-25.6c5.973-6.827,16.213-10.24,24.747-7.68
		h0.853l44.373,17.067c18.773,5.12,38.4,7.68,58.027,7.68h139.947c19.627,0,39.253-2.56,58.027-7.68L427.589-0.15h0.853
		c9.387-2.56,18.773,0.853,24.747,7.68c6.827,7.68,8.533,17.067,4.267,26.453l-23.04,59.733c22.187,97.28,22.187,205.653,0,323.413
		l19.627,59.733c3.413,8.533,1.707,17.92-4.267,25.6c-5.973,6.827-14.507,10.24-23.893,8.533l-50.347-8.533
		c-3.413-0.853-6.827-0.853-10.24-1.707c-4.267-0.853-8.533-0.853-11.947-1.707c-14.507-3.413-29.867-5.12-43.52-5.12H200.602
		c-13.653,0-29.013,1.707-43.52,4.267c-4.267,0.853-7.68,1.707-11.947,1.707c-3.413,0.853-6.827,0.853-10.24,1.707l-50.347,8.533
		C82.842,510.143,81.136,510.143,79.429,510.143z M75.162,16.063c-2.56,0-4.267,1.707-5.12,2.56c-2.56,2.56-3.413,5.973-1.707,9.387
		l24.747,62.293c0,0.853,0,2.56,0,4.267c-22.187,99.84-22.187,208.213,0,320.853c0,1.707,0,2.56,0,4.267l-20.48,61.44
		c-1.707,3.413-0.853,6.827,0.853,9.387c0.853,0.853,3.413,3.413,7.68,2.56l50.347-8.533c3.413-0.853,6.827-0.853,10.24-1.707
		c4.267-0.853,7.68-0.853,11.947-1.707c16.213-2.56,31.573-4.267,46.933-4.267h109.227c14.507,0,30.72,1.707,46.933,4.267
		c3.413,0.853,7.68,0.853,11.947,1.707c3.413,0.853,6.827,0.853,10.24,1.707l50.347,8.533c4.267,0.853,6.827-1.707,7.68-2.56
		c1.707-2.56,2.56-5.973,1.707-8.533l-21.333-62.293c0-0.853,0-2.56,0-4.267c22.187-116.907,22.187-224.427,0-320.853
		c0-1.707,0-3.413,0-5.12l24.747-62.293c1.707-2.56,0.853-5.973-1.707-8.533c-0.853-0.853-3.413-3.413-7.68-2.56L388.336,33.13
		h-0.853c-19.627,5.973-40.96,8.533-62.293,8.533H185.242c-21.333,0-42.667-2.56-63.147-7.68h-0.853l-44.373-17.92
		C76.869,16.063,76.016,16.063,75.162,16.063z M385.776,25.45L385.776,25.45L385.776,25.45z"/>
	<path d="M297.882,417.13h-85.333c-5.12,0-8.533-3.413-8.533-8.533s3.413-8.533,8.533-8.533h85.333c5.12,0,8.533,3.413,8.533,8.533
		S303.002,417.13,297.882,417.13z"/>
	<path d="M314.949,451.263H195.482c-5.12,0-8.533-3.413-8.533-8.533s3.413-8.533,8.533-8.533h119.467
		c5.12,0,8.533,3.413,8.533,8.533S320.069,451.263,314.949,451.263z"/>
	<path d="M248.389,297.663c-5.12,0-8.533-3.413-8.533-8.533c0-56.32,46.08-102.4,102.4-102.4c5.12,0,8.533,3.413,8.533,8.533
		C350.789,251.583,304.709,297.663,248.389,297.663z M332.869,204.65c-40.107,4.267-71.68,35.84-75.947,75.947
		C297.029,276.33,328.602,243.903,332.869,204.65z"/>
	<path d="M276.549,177.343c-14.507,0-29.013-3.413-42.667-9.387c-24.747-11.093-43.52-31.573-53.76-57.173
		c-1.707-4.267,0.853-9.387,5.12-11.093c52.907-19.627,111.787,6.827,131.413,59.733c0.853,1.707,0.853,4.267,0,6.827
		c-0.853,1.707-2.56,3.413-5.12,4.267C300.442,174.783,288.496,177.343,276.549,177.343z M200.602,112.49
		c8.533,17.067,23.04,31.573,40.96,39.253c17.92,8.533,37.547,10.24,56.32,5.12C279.962,121.023,239.002,102.25,200.602,112.49z"/>
	<path d="M163.056,314.73c-3.413,0-5.973-1.707-7.68-4.267c-12.8-23.893-15.36-52.053-6.827-78.507
		c8.533-26.453,26.453-46.933,50.347-59.733c4.267-2.56,9.387-0.853,11.093,3.413c25.6,50.347,5.973,111.787-43.52,138.24
		C165.616,314.73,164.762,314.73,163.056,314.73z M199.749,191.85c-16.213,11.093-28.16,26.453-34.133,45.227
		c-5.973,18.773-5.12,38.4,1.707,57.173C200.602,272.063,214.256,229.397,199.749,191.85z"/>
</g>
</svg>